<svg width="45" height="47" viewBox="0 0 45 47" fill="none" xmlns="http://www.w3.org/2000/svg">
<path d="M25.9755 15.0743C25.5987 14.5818 25.1734 14.1911 24.6997 13.9023C24.2214 13.603 23.6999 13.4033 23.1351 13.3032C22.5761 13.1881 21.9785 13.183 21.3421 13.2879C20.7116 13.3778 20.058 13.5708 19.3814 13.867C17.9239 14.5049 16.8326 15.3981 16.1072 16.5467C15.3923 17.6907 15.0512 19.037 15.084 20.5856C15.1272 22.1296 15.5543 23.8282 16.3653 25.6812C17.1855 27.555 18.1422 29.0466 19.2355 30.1558C20.3288 31.265 21.5353 31.9526 22.8549 32.2185C24.1745 32.4845 25.5839 32.2894 27.083 31.6333C28.405 31.0546 29.419 30.3813 30.1249 29.6134C30.8412 28.8409 31.263 28.0051 31.3904 27.1058C31.5178 26.2065 31.3719 25.2781 30.9527 24.3203L32.5201 23.8204L25.2122 27.0189L22.5057 20.8353L36.6844 14.6295L38.6254 19.0642C39.9012 21.9791 40.373 24.7434 40.0409 27.3573C39.7147 29.9561 38.7104 32.2812 37.028 34.3324C35.3516 36.3686 33.1183 37.9973 30.3284 39.2184C27.2158 40.5807 24.1938 41.1157 21.2624 40.8234C18.3311 40.531 15.669 39.451 13.2761 37.5832C10.8937 35.711 8.96435 33.0884 7.48808 29.7155C6.33077 27.0713 5.70638 24.5536 5.61491 22.1623C5.53386 19.7665 5.90408 17.5516 6.72558 15.5174C7.54251 13.4729 8.73591 11.6791 10.3058 10.1361C11.8711 8.58266 13.7312 7.33437 15.8861 6.3912C17.7807 5.56194 19.6585 5.06258 21.5194 4.89312C23.3862 4.70869 25.1606 4.83757 26.8427 5.27978C28.5306 5.70701 30.0537 6.4235 31.4118 7.42924C32.7699 8.43498 33.8831 9.70299 34.7513 11.2333L25.9755 15.0743Z" fill="#1E1E1E"/>
</svg>
